<svg width="20" height="19" viewBox="0 0 20 19" fill="none" xmlns="http://www.w3.org/2000/svg">
<g clip-path="url(#clip0_1_470)">
<path fill-rule="evenodd" clip-rule="evenodd" d="M19.2828 9.28432C19.2828 4.15722 14.9657 0 9.64141 0C4.31711 0 0 4.15722 0 9.28432C0 13.9182 3.52514 17.7592 8.13494 18.4563V11.9689H5.68628V9.28432H8.13494V7.23887C8.13494 4.9124 9.5747 3.62627 11.7767 3.62627C12.8317 3.62627 13.9353 3.80782 13.9353 3.80782V6.09284H12.7189C11.5219 6.09284 11.1475 6.80823 11.1475 7.54351V9.28432H13.8212L13.3942 11.9689H11.1479V18.4572C15.7577 17.7604 19.2828 13.9194 19.2828 9.28432Z" fill="#274C5B"/>
</g>
<defs>
<clipPath id="clip0_1_470">
<rect width="20" height="19" fill="white"/>
</clipPath>
</defs>
</svg>
