<svg width="20" height="19" viewBox="0 0 20 19" fill="none" xmlns="http://www.w3.org/2000/svg">
<g clip-path="url(#clip0_1_478)">
<path d="M13.6585 1.54725C14.7231 1.55031 15.7431 1.95889 16.4958 2.68376C17.2486 3.40863 17.6729 4.39088 17.6761 5.41599V13.1527C17.6729 14.1778 17.2486 15.16 16.4958 15.8849C15.7431 16.6098 14.7231 17.0183 13.6585 17.0214H5.6243C4.55976 17.0183 3.53973 16.6098 2.78698 15.8849C2.03423 15.16 1.60994 14.1778 1.60676 13.1527V5.41599C1.60994 4.39088 2.03423 3.40863 2.78698 2.68376C3.53973 1.95889 4.55976 1.55031 5.6243 1.54725H13.6585ZM13.6585 0H5.6243C2.53087 0 0 2.43713 0 5.41599V13.1527C0 16.1315 2.53087 18.5686 5.6243 18.5686H13.6585C16.752 18.5686 19.2828 16.1315 19.2828 13.1527V5.41599C19.2828 2.43713 16.752 0 13.6585 0Z" fill="#274C5B"/>
<path d="M14.8633 5.41679C14.6249 5.41679 14.3919 5.34872 14.1937 5.2212C13.9956 5.09368 13.8411 4.91243 13.7499 4.70037C13.6587 4.4883 13.6348 4.25496 13.6813 4.02984C13.7278 3.80471 13.8426 3.59792 14.0111 3.43562C14.1797 3.27332 14.3944 3.16278 14.6282 3.118C14.862 3.07323 15.1043 3.09621 15.3245 3.18405C15.5447 3.27188 15.7329 3.42063 15.8654 3.61148C15.9978 3.80233 16.0685 4.02671 16.0685 4.25625C16.0688 4.40874 16.0379 4.5598 15.9774 4.70075C15.917 4.8417 15.8282 4.96977 15.7163 5.0776C15.6043 5.18543 15.4713 5.27091 15.3249 5.32911C15.1785 5.38732 15.0217 5.41711 14.8633 5.41679ZM9.64102 6.1902C10.2767 6.1902 10.8981 6.37172 11.4266 6.71179C11.9551 7.05186 12.3671 7.53522 12.6103 8.10075C12.8536 8.66627 12.9172 9.28855 12.7932 9.8889C12.6692 10.4893 12.3631 11.0407 11.9136 11.4736C11.4641 11.9064 10.8915 12.2012 10.268 12.3206C9.64458 12.44 8.99837 12.3787 8.4111 12.1445C7.82382 11.9102 7.32187 11.5135 6.96872 11.0046C6.61557 10.4956 6.42707 9.89723 6.42707 9.28512C6.42798 8.46456 6.76689 7.67787 7.36942 7.09765C7.97196 6.51743 8.78891 6.19108 9.64102 6.1902ZM9.64102 4.64295C8.68757 4.64295 7.75554 4.91521 6.96278 5.4253C6.17002 5.93539 5.55214 6.66039 5.18727 7.50864C4.8224 8.35688 4.72694 9.29027 4.91294 10.1908C5.09895 11.0913 5.55808 11.9184 6.23227 12.5676C6.90645 13.2168 7.76542 13.659 8.70055 13.8381C9.63567 14.0172 10.605 13.9253 11.4858 13.5739C12.3667 13.2226 13.1196 12.6276 13.6493 11.8642C14.179 11.1008 14.4617 10.2033 14.4617 9.28512C14.4617 8.05394 13.9538 6.87319 13.0498 6.00261C12.1457 5.13204 10.9196 4.64295 9.64102 4.64295Z" fill="#274C5B"/>
</g>
<defs>
<clipPath id="clip0_1_478">
<rect width="20" height="19" fill="white"/>
</clipPath>
</defs>
</svg>
