<svg width="20" height="20" viewBox="0 0 20 20" fill="none" xmlns="http://www.w3.org/2000/svg">
<g clip-path="url(#clip0_1_483)">
<path d="M9.79664 0C4.38662 0 0 4.38466 0 9.79227C0 13.801 2.41417 17.2458 5.86486 18.7627C5.83862 18.0807 5.86049 17.2589 6.03543 16.5157C6.22349 15.7201 7.295 11.178 7.295 11.178C7.295 11.178 6.9801 10.5529 6.9801 9.63052C6.9801 8.17916 7.81982 7.09502 8.86946 7.09502C9.76165 7.09502 10.1903 7.76387 10.1903 8.56386C10.1903 9.46003 9.61732 10.7977 9.3243 12.0392C9.07938 13.0797 9.84475 13.9234 10.8725 13.9234C12.7269 13.9234 13.9777 11.5409 13.9777 8.71687C13.9777 6.57044 12.5301 4.96608 9.9016 4.96608C6.932 4.96608 5.07763 7.18245 5.07763 9.65675C5.07763 10.5092 5.3313 11.1125 5.72491 11.5759C5.90422 11.7901 5.93046 11.8775 5.86486 12.1223C5.81675 12.3015 5.71179 12.7343 5.66368 12.9092C5.59808 13.1584 5.3969 13.2458 5.17385 13.154C3.80494 12.5944 3.16641 11.0994 3.16641 9.41194C3.16641 6.63164 5.51498 3.29615 10.1684 3.29615C13.9077 3.29615 16.37 6.00213 16.37 8.90484C16.37 12.7474 14.2314 15.6152 11.0824 15.6152C10.0241 15.6152 9.03128 15.0425 8.69014 14.3955C8.69014 14.3955 8.12159 16.6512 7.99913 17.0884C7.79357 17.8447 7.38684 18.5966 7.01509 19.1867C7.91686 19.4526 8.85208 19.5881 9.79226 19.5889C15.2023 19.5889 19.5889 15.2042 19.5889 9.79664C19.5889 4.38903 15.2067 0 9.79664 0Z" fill="#274C5B"/>
</g>
<defs>
<clipPath id="clip0_1_483">
<rect width="20" height="20" fill="white"/>
</clipPath>
</defs>
</svg>
