<svg width="21" height="17" viewBox="0 0 21 17" fill="none" xmlns="http://www.w3.org/2000/svg">
<path d="M20.6602 1.95842C19.8852 2.29516 19.0652 2.51701 18.2261 2.61696C19.1079 2.10062 19.7711 1.28032 20.0912 0.30991C19.2575 0.7974 18.3469 1.13945 17.3984 1.3214C16.9991 0.902826 16.5187 0.569842 15.9866 0.342684C15.4546 0.115526 14.8818 -0.00106199 14.3033 7.28894e-06C11.9609 7.28894e-06 10.0654 1.86803 10.0654 4.17078C10.0637 4.49108 10.1004 4.81043 10.1747 5.12201C8.49507 5.04327 6.85036 4.61479 5.34581 3.864C3.84126 3.1132 2.50999 2.05662 1.43717 0.761851C1.0608 1.39634 0.861758 2.12028 0.86084 2.858C0.86084 4.30421 1.61537 5.58256 2.75469 6.33149C2.07967 6.31547 1.41849 6.13681 0.827268 5.81068V5.86233C0.827268 7.8853 2.2907 9.56825 4.22759 9.95132C3.86336 10.0484 3.48803 10.0976 3.11108 10.0977C2.84361 10.0981 2.57674 10.0722 2.31437 10.0202C2.85283 11.6773 4.41999 12.8825 6.27639 12.9169C4.76793 14.0794 2.91593 14.7078 1.01149 14.7032C0.673443 14.7027 0.335713 14.6825 0 14.6429C1.9374 15.88 4.18947 16.5344 6.48815 16.5281C14.2943 16.5281 18.5589 10.1708 18.5589 4.65715C18.5589 4.47638 18.5541 4.2956 18.5455 4.11913C19.3733 3.53034 20.0893 2.79865 20.6602 1.95842Z" fill="#274C5B"/>
</svg>
