<svg width="200" height="56" viewBox="0 0 200 56" fill="none" xmlns="http://www.w3.org/2000/svg">
<g clip-path="url(#clip0_1_7)">
<path d="M70.3945 27.2192V28.4995C70.3945 30.5529 70.1162 32.396 69.5596 34.0288C69.0029 35.6616 68.2174 37.0532 67.2031 38.2036C66.1888 39.3416 64.9766 40.2137 63.5664 40.8198C62.1686 41.4259 60.6162 41.729 58.9092 41.729C57.2145 41.729 55.6621 41.4259 54.252 40.8198C52.8542 40.2137 51.6419 39.3416 50.6152 38.2036C49.5885 37.0532 48.7907 35.6616 48.2217 34.0288C47.665 32.396 47.3867 30.5529 47.3867 28.4995V27.2192C47.3867 25.1535 47.665 23.3104 48.2217 21.6899C48.7783 20.0571 49.5638 18.6655 50.5781 17.5151C51.6048 16.3647 52.8171 15.4865 54.2148 14.8804C55.625 14.2743 57.1774 13.9712 58.8721 13.9712C60.5791 13.9712 62.1315 14.2743 63.5293 14.8804C64.9395 15.4865 66.1517 16.3647 67.166 17.5151C68.1927 18.6655 68.9844 20.0571 69.541 21.6899C70.11 23.3104 70.3945 25.1535 70.3945 27.2192ZM64.7725 28.4995V27.1821C64.7725 25.7472 64.6426 24.4855 64.3828 23.397C64.123 22.3084 63.7396 21.3931 63.2324 20.6509C62.7253 19.9087 62.1068 19.3521 61.377 18.981C60.6471 18.5975 59.8122 18.4058 58.8721 18.4058C57.932 18.4058 57.097 18.5975 56.3672 18.981C55.6497 19.3521 55.0374 19.9087 54.5303 20.6509C54.0355 21.3931 53.6582 22.3084 53.3984 23.397C53.1387 24.4855 53.0088 25.7472 53.0088 27.1821V28.4995C53.0088 29.922 53.1387 31.1838 53.3984 32.2847C53.6582 33.3732 54.0417 34.2948 54.5488 35.0493C55.056 35.7915 55.6745 36.3543 56.4043 36.7378C57.1341 37.1213 57.9691 37.313 58.9092 37.313C59.8493 37.313 60.6842 37.1213 61.4141 36.7378C62.1439 36.3543 62.7562 35.7915 63.251 35.0493C63.7458 34.2948 64.123 33.3732 64.3828 32.2847C64.6426 31.1838 64.7725 29.922 64.7725 28.4995ZM79.4121 25.6606V41.3579H74.0684V21.2817H79.0967L79.4121 25.6606ZM85.4609 21.1519L85.3682 26.106C85.1084 26.0688 84.793 26.0379 84.4219 26.0132C84.0632 25.9761 83.7354 25.9575 83.4385 25.9575C82.6839 25.9575 82.0283 26.0565 81.4717 26.2544C80.9274 26.4399 80.4697 26.7183 80.0986 27.0894C79.7399 27.4604 79.4678 27.9119 79.2822 28.4438C79.109 28.9757 79.0101 29.5819 78.9854 30.2622L77.9092 29.9282C77.9092 28.6294 78.0391 27.4357 78.2988 26.3472C78.5586 25.2463 78.9359 24.2876 79.4307 23.4712C79.9378 22.6548 80.5563 22.0239 81.2861 21.5786C82.016 21.1333 82.8509 20.9106 83.791 20.9106C84.0879 20.9106 84.391 20.9354 84.7002 20.9849C85.0094 21.022 85.263 21.0776 85.4609 21.1519ZM100.323 21.2817H105.166V40.6899C105.166 42.5207 104.758 44.0731 103.941 45.3472C103.137 46.6336 102.012 47.6047 100.564 48.2603C99.1172 48.9282 97.4349 49.2622 95.5176 49.2622C94.6764 49.2622 93.7858 49.1509 92.8457 48.9282C91.918 48.7056 91.0273 48.3592 90.1738 47.8892C89.3327 47.4191 88.6276 46.8254 88.0586 46.1079L90.415 42.9536C91.0335 43.6711 91.751 44.2277 92.5674 44.6235C93.3838 45.0317 94.2868 45.2358 95.2764 45.2358C96.2412 45.2358 97.0576 45.0565 97.7256 44.6978C98.3936 44.3514 98.9069 43.8381 99.2656 43.1577C99.6243 42.4897 99.8037 41.6795 99.8037 40.7271V25.9204L100.323 21.2817ZM86.8154 31.561V31.1714C86.8154 29.6375 87.001 28.2459 87.3721 26.9966C87.7555 25.7349 88.2936 24.6525 88.9863 23.7495C89.6914 22.8465 90.5449 22.1476 91.5469 21.6528C92.5488 21.158 93.6807 20.9106 94.9424 20.9106C96.2783 20.9106 97.3978 21.158 98.3008 21.6528C99.2038 22.1476 99.946 22.8527 100.527 23.7681C101.109 24.6711 101.56 25.741 101.882 26.978C102.216 28.2026 102.476 29.5448 102.661 31.0044V31.8579C102.476 33.2557 102.197 34.5545 101.826 35.7544C101.455 36.9543 100.966 38.0057 100.36 38.9087C99.7542 39.7993 98.9997 40.492 98.0967 40.9868C97.2061 41.4816 96.1423 41.729 94.9053 41.729C93.6683 41.729 92.5488 41.4754 91.5469 40.9683C90.5573 40.4611 89.71 39.7498 89.0049 38.8345C88.2998 37.9191 87.7555 36.8429 87.3721 35.606C87.001 34.369 86.8154 33.0207 86.8154 31.561ZM92.1592 31.1714V31.561C92.1592 32.3898 92.2396 33.1629 92.4004 33.8804C92.5612 34.5978 92.8086 35.2349 93.1426 35.7915C93.4889 36.3358 93.9157 36.7625 94.4229 37.0718C94.9424 37.3687 95.5547 37.5171 96.2598 37.5171C97.237 37.5171 98.0348 37.313 98.6533 36.9048C99.2718 36.4842 99.7357 35.909 100.045 35.1792C100.354 34.4494 100.534 33.6082 100.583 32.6558V30.2251C100.558 29.4458 100.453 28.7469 100.268 28.1284C100.082 27.4976 99.8223 26.9595 99.4883 26.5142C99.1543 26.0688 98.7214 25.7225 98.1895 25.4751C97.6576 25.2277 97.0267 25.104 96.2969 25.104C95.5918 25.104 94.9795 25.2648 94.46 25.5864C93.9528 25.8957 93.526 26.3224 93.1797 26.8667C92.8457 27.411 92.5921 28.0542 92.4189 28.7964C92.2458 29.5262 92.1592 30.3179 92.1592 31.1714ZM120.158 36.8306V27.8872C120.158 27.244 120.053 26.6935 119.843 26.2358C119.632 25.7658 119.305 25.4009 118.859 25.1411C118.426 24.8813 117.864 24.7515 117.171 24.7515C116.577 24.7515 116.064 24.8566 115.631 25.0669C115.198 25.2648 114.864 25.5555 114.629 25.939C114.394 26.3101 114.276 26.7492 114.276 27.2563H108.933C108.933 26.4028 109.131 25.5926 109.526 24.8257C109.922 24.0588 110.497 23.3846 111.252 22.8032C112.007 22.2095 112.903 21.7456 113.942 21.4116C114.994 21.0776 116.169 20.9106 117.468 20.9106C119.026 20.9106 120.412 21.1704 121.624 21.6899C122.836 22.2095 123.789 22.9888 124.481 24.0278C125.187 25.0669 125.539 26.3657 125.539 27.9243V36.5151C125.539 37.616 125.607 38.519 125.743 39.2241C125.879 39.9168 126.077 40.5229 126.337 41.0425V41.3579H120.938C120.678 40.8136 120.48 40.1333 120.344 39.3169C120.22 38.4881 120.158 37.6593 120.158 36.8306ZM120.863 29.1304L120.9 32.1548H117.913C117.208 32.1548 116.596 32.2352 116.076 32.396C115.557 32.5568 115.13 32.7856 114.796 33.0825C114.462 33.367 114.215 33.701 114.054 34.0845C113.905 34.4679 113.831 34.8885 113.831 35.3462C113.831 35.8039 113.936 36.2183 114.146 36.5894C114.357 36.9481 114.66 37.2326 115.056 37.4429C115.451 37.6408 115.915 37.7397 116.447 37.7397C117.251 37.7397 117.95 37.5789 118.544 37.2573C119.138 36.9357 119.595 36.5399 119.917 36.0698C120.251 35.5998 120.424 35.1545 120.437 34.7339L121.847 36.9976C121.649 37.5047 121.377 38.0304 121.03 38.5747C120.696 39.119 120.27 39.6323 119.75 40.1147C119.23 40.5848 118.606 40.9744 117.876 41.2837C117.146 41.5806 116.28 41.729 115.278 41.729C114.004 41.729 112.848 41.4754 111.809 40.9683C110.782 40.4487 109.965 39.7375 109.359 38.8345C108.766 37.9191 108.469 36.88 108.469 35.7173C108.469 34.6659 108.667 33.7319 109.062 32.9155C109.458 32.0991 110.04 31.4126 110.807 30.856C111.586 30.2869 112.557 29.8602 113.72 29.5757C114.882 29.2788 116.231 29.1304 117.765 29.1304H120.863ZM134.891 25.5679V41.3579H129.547V21.2817H134.557L134.891 25.5679ZM134.111 30.6147H132.664C132.664 29.1304 132.856 27.7944 133.239 26.6069C133.623 25.4071 134.161 24.3866 134.854 23.5454C135.546 22.6919 136.369 22.0425 137.321 21.5972C138.286 21.1395 139.362 20.9106 140.55 20.9106C141.49 20.9106 142.35 21.0467 143.129 21.3188C143.908 21.591 144.576 22.0239 145.133 22.6177C145.702 23.2114 146.135 23.9969 146.432 24.9741C146.741 25.9513 146.896 27.145 146.896 28.5552V41.3579H141.515V28.5366C141.515 27.646 141.391 26.9533 141.144 26.4585C140.896 25.9637 140.531 25.6174 140.049 25.4194C139.579 25.2091 138.997 25.104 138.305 25.104C137.587 25.104 136.963 25.2463 136.431 25.5308C135.911 25.8153 135.478 26.2111 135.132 26.7183C134.798 27.2131 134.544 27.7944 134.371 28.4624C134.198 29.1304 134.111 29.8478 134.111 30.6147ZM156.6 21.2817V41.3579H151.237V21.2817H156.6ZM150.903 16.0493C150.903 15.27 151.175 14.6268 151.72 14.1196C152.264 13.6125 152.994 13.3589 153.909 13.3589C154.812 13.3589 155.536 13.6125 156.08 14.1196C156.637 14.6268 156.915 15.27 156.915 16.0493C156.915 16.8286 156.637 17.4718 156.08 17.979C155.536 18.4862 154.812 18.7397 153.909 18.7397C152.994 18.7397 152.264 18.4862 151.72 17.979C151.175 17.4718 150.903 16.8286 150.903 16.0493ZM169.31 37.5542C169.965 37.5542 170.547 37.4305 171.054 37.1831C171.561 36.9233 171.957 36.5646 172.241 36.1069C172.538 35.6369 172.693 35.0864 172.705 34.4556H177.733C177.721 35.8657 177.344 37.1213 176.602 38.2222C175.859 39.3107 174.864 40.1704 173.614 40.8013C172.365 41.4198 170.967 41.729 169.421 41.729C167.862 41.729 166.502 41.4692 165.339 40.9497C164.188 40.4302 163.23 39.7127 162.463 38.7974C161.696 37.8696 161.121 36.7935 160.737 35.5688C160.354 34.3319 160.162 33.0083 160.162 31.5981V31.0601C160.162 29.6375 160.354 28.314 160.737 27.0894C161.121 25.8524 161.696 24.7762 162.463 23.8608C163.23 22.9331 164.188 22.2095 165.339 21.6899C166.489 21.1704 167.838 20.9106 169.384 20.9106C171.029 20.9106 172.47 21.2261 173.707 21.8569C174.956 22.4878 175.934 23.3908 176.639 24.5659C177.356 25.7287 177.721 27.1079 177.733 28.7036H172.705C172.693 28.0356 172.55 27.4295 172.278 26.8853C172.019 26.341 171.635 25.908 171.128 25.5864C170.633 25.2524 170.021 25.0854 169.291 25.0854C168.512 25.0854 167.875 25.2524 167.38 25.5864C166.885 25.908 166.502 26.3534 166.229 26.9224C165.957 27.479 165.766 28.116 165.654 28.8335C165.555 29.5386 165.506 30.2808 165.506 31.0601V31.5981C165.506 32.3774 165.555 33.1258 165.654 33.8433C165.753 34.5607 165.939 35.1978 166.211 35.7544C166.495 36.311 166.885 36.7502 167.38 37.0718C167.875 37.3934 168.518 37.5542 169.31 37.5542ZM186.176 12.8394V41.3579H180.832V12.8394H186.176ZM198.83 21.2817L190.109 31.2271L185.434 35.9585L183.485 32.0991L187.196 27.3862L192.41 21.2817H198.83ZM193.282 41.3579L187.345 32.0806L191.037 28.8521L199.442 41.3579H193.282Z" fill="#274C5B"/>
<path d="M1.85071 41.9263H19.291H36.7313" stroke="#7EB693" stroke-width="2" stroke-miterlimit="10"/>
<path d="M5.79102 48.3579H19.291H32.791" stroke="#7EB693" stroke-width="2" stroke-miterlimit="10"/>
<path d="M18.791 1.35791V8.35791V15.3579" stroke="#7EB693" stroke-width="2" stroke-miterlimit="10"/>
<path d="M18.8656 14.6421V41.0737" stroke="#7EB693" stroke-width="2" stroke-miterlimit="10"/>
<path d="M29.9253 4.41064L18.8656 15.4949" stroke="#7EB693" stroke-width="2" stroke-miterlimit="10"/>
<path d="M34.179 8.67383L18.8656 24.0212" stroke="#7EB693" stroke-width="2" stroke-miterlimit="10"/>
<path d="M36.7313 15.4946L18.8656 32.5473" stroke="#7EB693" stroke-width="2" stroke-miterlimit="10"/>
<path d="M37.582 23.1685L18.8656 41.9264" stroke="#7EB693" stroke-width="2" stroke-miterlimit="10"/>
<path d="M37.5821 31.6948L27.3731 41.9264" stroke="#7EB693" stroke-width="2" stroke-miterlimit="10"/>
<path d="M1 31.6948L11.209 41.9264" stroke="#7EB693" stroke-width="2" stroke-miterlimit="10"/>
<path d="M8.65668 4.41064L18.8656 15.4949" stroke="#7EB693" stroke-width="2" stroke-miterlimit="10"/>
<path d="M4.40295 8.67383L18.8656 24.0212" stroke="#7EB693" stroke-width="2" stroke-miterlimit="10"/>
<path d="M1.85071 14.6421L18.8656 32.5474" stroke="#7EB693" stroke-width="2" stroke-miterlimit="10"/>
<path d="M1 22.3159L18.8657 41.0738" stroke="#7EB693" stroke-width="2" stroke-miterlimit="10"/>
<path d="M19.291 54.7158C9.19019 54.7158 1 46.2635 1 35.8351V19.8806C1 9.45419 9.19019 1 19.291 1C29.3937 1 37.5821 9.45419 37.5821 19.8806V35.8351C37.5839 46.2635 29.3937 54.7158 19.291 54.7158Z" stroke="#7EB693" stroke-width="2" stroke-miterlimit="10"/>
</g>
<defs>
<clipPath id="clip0_1_7">
<rect width="200" height="56" fill="white"/>
</clipPath>
</defs>
</svg>
