<svg width="14" height="14" viewBox="0 0 14 14" fill="none" xmlns="http://www.w3.org/2000/svg">
<path d="M6.57751 0.781251C6.72819 0.338582 7.11173 0.112753 7.5 0.10376C7.5 5.5 7.5 8.5 7.5 10.9141C7.30883 10.9187 7.11869 10.9781 6.95421 11.0922L4.36181 12.8901C3.56911 13.4399 2.53441 12.6594 2.84521 11.7462L3.78471 8.98608C3.92861 8.56338 3.77481 8.09658 3.40791 7.84214L0.997211 6.17021C0.191911 5.61174 0.587112 4.34849 1.56711 4.34849H4.64731C5.07541 4.34849 5.45601 4.07598 5.59401 3.67071L6.57751 0.781251Z" fill="#FFA858"/>
<path d="M7.5 0.588379C7.83593 0.596549 8.16777 0.801724 8.29814 1.20391L9.14906 3.82909C9.26846 4.19729 9.59775 4.44488 9.96814 4.44488H12.6331C13.481 4.44488 13.823 5.59259 13.1262 6.09998L11.0405 7.619C10.723 7.85016 10.59 8.27427 10.7145 8.65831L11.5273 11.166C11.7962 11.9956 10.901 12.7048 10.2152 12.2052L7.97222 10.5718C7.82991 10.4681 7.6654 10.4142 7.5 10.41" stroke="#FFA858"/>
</svg>
